<?xml version="1.0" encoding="utf-8"?>
<!-- Generator: Adobe Illustrator 22.1.0, SVG Export Plug-In . SVG Version: 6.00 Build 0)  -->
<svg version="1.1" id="Ebene_1" xmlns="http://www.w3.org/2000/svg" xmlns:xlink="http://www.w3.org/1999/xlink" x="0px" y="0px"
	 viewBox="0 0 432 135.9" style="enable-background:new 0 0 432 135.9;" xml:space="preserve">
<style type="text/css">
	.st0{fill:#A845E6;}
</style>
<title>mobo3</title>
<path class="st0" d="M300.4,93.3c-23-1.8-45.6,0.3-68.5,0.5c-24.5,0.2-48.9-2.2-73.2-4.5c-22.6-2.2-45.1-0.7-67.7-2.1
	c-8.9-0.5-22.4,1.2-26.8-7.6c-1.9-3.7-3.7-11.5-2-15.8c3.9-9.8,14.1-6.7,22.7-6.2c13.3,0.7,26.3,0.5,39.5,0c21-0.8,42.2,2.4,63,4.3
	c41.9,3.8,85.4,3,127.5,2.3c-1.4-8.5-1-14,6.8-19.4c7.4-5,12.7-0.9,20.1,1.4c8.3,2.6,17,3.7,25.4,6.2c8.8,2.7,17.3,7.6,26.5,8.8
	c12.9,1.6,30-3.8,36.7,11.5c5.7,13-4.3,19.9-14,26.5S396,112,386,118.9c-5.6,3.9-11.8,10.8-17.9,13.7c-4,1.9-7.2,0.1-10.9,0.8
	c-1.6,0.3-3.1,1.9-4.5,2.1c-14.2,2.3-20.4-7.3-22.1-20.4c-0.7-5.1,0.8-17.1-2.5-20.9C324.9,90.7,305,92.7,300.4,93.3z"/>
<path d="M110.2,120.3c-5.4-6.8-1.9-19.7-3.2-27.8c-1.2-8-3-15.9-5.5-23.6c-1-2.9-2.2-8.5-5.5-9.3c-3.1-0.7-8.8,3.9-10.2,6.3
	c-3.5,6-2,18-3.3,25.2c-1.2,6.8-2.6,20.2-8.3,24.8c-5,4.1-16.7,3.3-19.4-3.1c-3.1-7.3,1.7-22.1,2.9-29.8c1.5-9.5,1.7-20.7-3.1-29.3
	c-4.7,3-13,7.3-15.3,12.3c-3,6.5-1.3,17.8-2.2,25s-1.3,14.2-7.5,17.8c-3.4,2-8.5,5.6-12.9,7.2c-3.9,1.4-11,1.3-14.2-2.2
	c-3.7-4.1-2.3-13.2-2-18.1c1.1-17-0.5-35.5,2.1-52.3c1-6.6,4.2-10.4,10.8-11.3c9-1.3,10.8,4.8,18.3,7.1c9.6,3,19.9-11.2,32.7-6.8
	c3.6,1.2,8.1,3.3,10.8,6.1c0.7,0.8,1.8,4.7,3,5c1.5,0.5,5.7-3.1,7.1-3.7c4-1.7,8.3-2.6,12.7-2.6c14,0.3,23.1,11,27.2,23.5
	s7.4,26.2,7.8,40.2c0.2,8,0.1,16.5-8.3,19.8C119.2,123.1,115.5,120.9,110.2,120.3z"/>
<path d="M230.6,58.3c4.1-11.5,2.1-25.8,3.8-37.9c1.2-8.4-0.9-14.9,7.8-18.8c7.2-3.3,18-1.6,20.9,7.2c1.9,5.8-1.5,16.6-2.2,22.6
	c-0.5,4-3.1,13.3,0,16.1c0,0,5.8,0.7,6.5,0.8c4.3,0.7,8.5,1.7,12.8,2.7c7.4,1.8,15.7,4,21.8,8.7c26.2,20.2-5.7,46.7-25.5,55.6
	c-8,3.6-18.5,7.1-27.4,5.7c-6-1-17.8-5.7-17.8-13.5c0-3.3,3-6.2,3.3-9.6c0.4-4.4-1.1-9.7-1.5-14.2C232.3,75.4,233.7,65.9,230.6,58.3
	z M282.2,75.4c-3.2-1.2-19.8-7.2-22.9-3.7c-1.8,2.1,0.6,13.6,1.4,16c0.9,2.9-1.9,4.2,2.6,4.2c2,0,6-3.3,7.5-4.3
	C275.6,84.2,279.3,80.7,282.2,75.4z"/>
<path d="M216,85.4c-2.4,9.2-2.9,17.7-12.5,22.5s-23.8,1.4-32.9-3.1c-18.2-9.2-23.4-24.4-17.9-43.6c4.9-17.2,21.5-23,37.1-14.1
	c7.1,4.1,11,11.1,15.7,17.1C210.9,71,214.6,76.7,216,85.4z M188.9,85.1c-1.7-4.2-13.1-15.5-12.3-4.4C177,85.4,189.1,93,188.9,85.1z"
	/>
</svg>
